<mxfile host="app.diagrams.net" modified="2020-10-25T06:27:57.830Z" agent="5.0 (Macintosh; Intel Mac OS X 10_15_5) AppleWebKit/537.36 (KHTML, like Gecko) Brave Chrome/83.0.4103.116 Safari/537.36" etag="j2FHGTm6Q-SGQ42tdIm_" version="13.8.2" type="github">
  <diagram id="b786mZK-mVUyeJVSPmJI" name="Page-1">
    <mxGraphModel dx="1186" dy="549" grid="1" gridSize="10" guides="1" tooltips="1" connect="1" arrows="1" fold="1" page="1" pageScale="1" pageWidth="1654" pageHeight="1169" math="0" shadow="0">
      <root>
        <mxCell id="0" />
        <mxCell id="1" parent="0" />
        <mxCell id="Dn3Qr2qb9EFiXZYNv7Yk-5" style="edgeStyle=orthogonalEdgeStyle;rounded=0;orthogonalLoop=1;jettySize=auto;html=1;entryX=0.4;entryY=-0.033;entryDx=0;entryDy=0;entryPerimeter=0;" edge="1" parent="1" source="Dn3Qr2qb9EFiXZYNv7Yk-2" target="Dn3Qr2qb9EFiXZYNv7Yk-3">
          <mxGeometry relative="1" as="geometry" />
        </mxCell>
        <mxCell id="Dn3Qr2qb9EFiXZYNv7Yk-6" style="edgeStyle=orthogonalEdgeStyle;rounded=0;orthogonalLoop=1;jettySize=auto;html=1;entryX=0.5;entryY=0;entryDx=0;entryDy=0;" edge="1" parent="1" source="Dn3Qr2qb9EFiXZYNv7Yk-2" target="Dn3Qr2qb9EFiXZYNv7Yk-4">
          <mxGeometry relative="1" as="geometry" />
        </mxCell>
        <mxCell id="Dn3Qr2qb9EFiXZYNv7Yk-2" value="" style="shape=ellipse;html=1;dashed=0;whitespace=wrap;aspect=fixed;perimeter=ellipsePerimeter;" vertex="1" parent="1">
          <mxGeometry x="250" y="40" width="60" height="60" as="geometry" />
        </mxCell>
        <mxCell id="Dn3Qr2qb9EFiXZYNv7Yk-9" style="edgeStyle=orthogonalEdgeStyle;rounded=0;orthogonalLoop=1;jettySize=auto;html=1;entryX=0.5;entryY=0;entryDx=0;entryDy=0;" edge="1" parent="1" source="Dn3Qr2qb9EFiXZYNv7Yk-3" target="Dn3Qr2qb9EFiXZYNv7Yk-7">
          <mxGeometry relative="1" as="geometry" />
        </mxCell>
        <mxCell id="Dn3Qr2qb9EFiXZYNv7Yk-10" style="edgeStyle=orthogonalEdgeStyle;rounded=0;orthogonalLoop=1;jettySize=auto;html=1;entryX=0.5;entryY=0;entryDx=0;entryDy=0;" edge="1" parent="1" source="Dn3Qr2qb9EFiXZYNv7Yk-3" target="Dn3Qr2qb9EFiXZYNv7Yk-8">
          <mxGeometry relative="1" as="geometry">
            <mxPoint x="220" y="250" as="targetPoint" />
          </mxGeometry>
        </mxCell>
        <mxCell id="Dn3Qr2qb9EFiXZYNv7Yk-3" value="" style="shape=ellipse;html=1;dashed=0;whitespace=wrap;aspect=fixed;perimeter=ellipsePerimeter;" vertex="1" parent="1">
          <mxGeometry x="110" y="140" width="60" height="60" as="geometry" />
        </mxCell>
        <mxCell id="Dn3Qr2qb9EFiXZYNv7Yk-12" style="edgeStyle=orthogonalEdgeStyle;rounded=0;orthogonalLoop=1;jettySize=auto;html=1;entryX=0.5;entryY=0;entryDx=0;entryDy=0;" edge="1" parent="1" source="Dn3Qr2qb9EFiXZYNv7Yk-4" target="Dn3Qr2qb9EFiXZYNv7Yk-11">
          <mxGeometry relative="1" as="geometry" />
        </mxCell>
        <mxCell id="Dn3Qr2qb9EFiXZYNv7Yk-4" value="" style="shape=ellipse;html=1;dashed=0;whitespace=wrap;aspect=fixed;perimeter=ellipsePerimeter;" vertex="1" parent="1">
          <mxGeometry x="390" y="140" width="60" height="60" as="geometry" />
        </mxCell>
        <mxCell id="Dn3Qr2qb9EFiXZYNv7Yk-7" value="" style="shape=ellipse;html=1;dashed=0;whitespace=wrap;aspect=fixed;perimeter=ellipsePerimeter;" vertex="1" parent="1">
          <mxGeometry x="30" y="260" width="60" height="60" as="geometry" />
        </mxCell>
        <mxCell id="Dn3Qr2qb9EFiXZYNv7Yk-8" value="" style="shape=ellipse;html=1;dashed=0;whitespace=wrap;aspect=fixed;perimeter=ellipsePerimeter;" vertex="1" parent="1">
          <mxGeometry x="180" y="260" width="60" height="60" as="geometry" />
        </mxCell>
        <mxCell id="Dn3Qr2qb9EFiXZYNv7Yk-11" value="" style="shape=ellipse;html=1;dashed=0;whitespace=wrap;aspect=fixed;perimeter=ellipsePerimeter;" vertex="1" parent="1">
          <mxGeometry x="300" y="260" width="60" height="60" as="geometry" />
        </mxCell>
        <mxCell id="Dn3Qr2qb9EFiXZYNv7Yk-13" value="" style="rounded=0;whiteSpace=wrap;html=1;" vertex="1" parent="1">
          <mxGeometry x="640" y="40" width="80" height="40" as="geometry" />
        </mxCell>
        <mxCell id="Dn3Qr2qb9EFiXZYNv7Yk-14" value="A" style="text;html=1;strokeColor=none;fillColor=none;align=center;verticalAlign=middle;whiteSpace=wrap;rounded=0;" vertex="1" parent="1">
          <mxGeometry x="660" y="20" width="40" height="20" as="geometry" />
        </mxCell>
        <mxCell id="Dn3Qr2qb9EFiXZYNv7Yk-15" value="" style="rounded=0;whiteSpace=wrap;html=1;" vertex="1" parent="1">
          <mxGeometry x="720" y="40" width="80" height="40" as="geometry" />
        </mxCell>
        <mxCell id="Dn3Qr2qb9EFiXZYNv7Yk-16" value="" style="rounded=0;whiteSpace=wrap;html=1;" vertex="1" parent="1">
          <mxGeometry x="800" y="40" width="80" height="40" as="geometry" />
        </mxCell>
        <mxCell id="Dn3Qr2qb9EFiXZYNv7Yk-17" value="" style="rounded=0;whiteSpace=wrap;html=1;" vertex="1" parent="1">
          <mxGeometry x="880" y="40" width="80" height="40" as="geometry" />
        </mxCell>
        <mxCell id="Dn3Qr2qb9EFiXZYNv7Yk-18" value="" style="rounded=0;whiteSpace=wrap;html=1;" vertex="1" parent="1">
          <mxGeometry x="960" y="40" width="80" height="40" as="geometry" />
        </mxCell>
        <mxCell id="Dn3Qr2qb9EFiXZYNv7Yk-19" value="B" style="text;html=1;strokeColor=none;fillColor=none;align=center;verticalAlign=middle;whiteSpace=wrap;rounded=0;" vertex="1" parent="1">
          <mxGeometry x="740" y="20" width="40" height="20" as="geometry" />
        </mxCell>
        <mxCell id="Dn3Qr2qb9EFiXZYNv7Yk-20" value="C" style="text;html=1;strokeColor=none;fillColor=none;align=center;verticalAlign=middle;whiteSpace=wrap;rounded=0;" vertex="1" parent="1">
          <mxGeometry x="820" y="20" width="40" height="20" as="geometry" />
        </mxCell>
        <mxCell id="Dn3Qr2qb9EFiXZYNv7Yk-21" value="D" style="text;html=1;strokeColor=none;fillColor=none;align=center;verticalAlign=middle;whiteSpace=wrap;rounded=0;" vertex="1" parent="1">
          <mxGeometry x="900" y="20" width="40" height="20" as="geometry" />
        </mxCell>
        <mxCell id="Dn3Qr2qb9EFiXZYNv7Yk-22" value="E" style="text;html=1;strokeColor=none;fillColor=none;align=center;verticalAlign=middle;whiteSpace=wrap;rounded=0;" vertex="1" parent="1">
          <mxGeometry x="980" y="20" width="40" height="20" as="geometry" />
        </mxCell>
        <mxCell id="Dn3Qr2qb9EFiXZYNv7Yk-23" value="No. of paths" style="text;html=1;strokeColor=none;fillColor=none;align=center;verticalAlign=middle;whiteSpace=wrap;rounded=0;" vertex="1" parent="1">
          <mxGeometry x="540" y="50" width="90" height="20" as="geometry" />
        </mxCell>
        <mxCell id="Dn3Qr2qb9EFiXZYNv7Yk-24" value="Heap" style="text;html=1;strokeColor=none;fillColor=none;align=center;verticalAlign=middle;whiteSpace=wrap;rounded=0;" vertex="1" parent="1">
          <mxGeometry x="240" y="10" width="90" height="20" as="geometry" />
        </mxCell>
      </root>
    </mxGraphModel>
  </diagram>
</mxfile>
